<!DOCTYPE svg PUBLIC "-//W3C//DTD SVG 1.1//EN" "http://www.w3.org/Graphics/SVG/1.1/DTD/svg11.dtd">
<!-- Uploaded to: SVG Repo, www.svgrepo.com, Transformed by: SVG Repo Mixer Tools -->
<svg fill="#ffffff" width="800px" height="800px" viewBox="0 0 512 512" xmlns="http://www.w3.org/2000/svg">
<g id="SVGRepo_bgCarrier" stroke-width="0"/>
<g id="SVGRepo_tracerCarrier" stroke-linecap="round" stroke-linejoin="round"/>
<g id="SVGRepo_iconCarrier">
<title>ionicons-v5-h</title>
<path d="M388,160.77a20,20,0,0,0-5.85-14.91l-112-112A20,20,0,0,0,236,48V212.52l-79-67.71a20,20,0,0,0-26,30.38L225.27,256,131,336.81a20,20,0,1,0,26,30.38l79-67.71V464a20,20,0,0,0,34.14,14.14l112-112A20,20,0,0,0,381,336.81L286.73,256,381,175.19A20,20,0,0,0,388,160.77ZM338.58,353.13,276,415.72V299.49ZM276,212.52V96.28l62.59,62.59Z"/>
</g>
</svg>